<svg width="19" height="29" viewBox="0 0 19 29" fill="none" xmlns="http://www.w3.org/2000/svg">
<path d="M8.73 17.79V25.02C8.73 25.2972 8.6199 25.563 8.4239 25.7589C8.228 25.9549 7.9622 26.065 7.685 26.065C7.4079 26.065 7.1421 25.9549 6.9461 25.7589C6.7501 25.563 6.64 25.2972 6.64 25.02V17.8C6.931 18.0125 7.2798 18.1311 7.64 18.14C8.0326 18.1512 8.4173 18.0277 8.73 17.79ZM17.63 15.7C17.3648 15.7 17.1104 15.8054 16.9229 15.9929C16.7354 16.1804 16.63 16.4348 16.63 16.7V17.96C16.63 18.2372 16.7401 18.503 16.9361 18.6989C17.132 18.8949 17.3978 19.005 17.675 19.005C17.9522 19.005 18.218 18.8949 18.4139 18.6989C18.6099 18.503 18.72 18.2372 18.72 17.96V16.75C18.7278 16.6066 18.7046 16.4632 18.652 16.3296C18.5994 16.196 18.5187 16.0752 18.4152 15.9756C18.3118 15.876 18.1881 15.7998 18.0527 15.7522C17.9172 15.7047 17.773 15.6869 17.63 15.7ZM4.37 20.53C4.01017 20.5192 3.66183 20.4008 3.37 20.19V27.44C3.37 27.7185 3.48062 27.9856 3.67754 28.1825C3.87445 28.3794 4.14152 28.49 4.42 28.49C4.69848 28.49 4.96555 28.3794 5.16246 28.1825C5.35938 27.9856 5.47 27.7185 5.47 27.44V20.24C5.14345 20.4511 4.75816 20.5527 4.37 20.53ZM14.37 13.53C14.2345 13.5232 14.0991 13.5441 13.9719 13.5913C13.8448 13.6385 13.7286 13.7111 13.6303 13.8046C13.5321 13.8982 13.454 14.0107 13.4006 14.1354C13.3473 14.2601 13.3198 14.3944 13.32 14.53V20.1C13.32 20.3785 13.4306 20.6456 13.6275 20.8425C13.8245 21.0394 14.0915 21.15 14.37 21.15C14.6485 21.15 14.9156 21.0394 15.1125 20.8425C15.3094 20.6456 15.42 20.3785 15.42 20.1V14.6C15.428 14.4557 15.4046 14.3114 15.3514 14.177C15.2982 14.0426 15.2166 13.9213 15.112 13.8215C15.0074 13.7217 14.8825 13.6457 14.7458 13.5989C14.6091 13.552 14.4638 13.5353 14.32 13.55L14.37 13.53ZM11.05 15.67C10.6733 15.6674 10.3067 15.5487 10 15.33V22.6C10 22.8785 10.1106 23.1456 10.3075 23.3425C10.5045 23.5394 10.7715 23.65 11.05 23.65C11.3285 23.65 11.5955 23.5394 11.7925 23.3425C11.9894 23.1456 12.1 22.8785 12.1 22.6V15.34C11.7828 15.5763 11.3955 15.6995 11 15.69L11.05 15.67ZM2.1 21.24V0.93C2.09737 0.68243 1.99717 0.44591 1.82117 0.27178C1.64517 0.09765 1.40758 -9.99923e-06 1.16 7.67895e-10H0.94C0.69242 -9.99923e-06 0.45483 0.09765 0.27883 0.27178C0.10283 0.44591 0.00263 0.68243 0 0.93V21.24C0 21.4893 0.09904 21.7284 0.27532 21.9047C0.4516 22.081 0.6907 22.18 0.94 22.18H1.16C1.40931 22.18 1.6484 22.081 1.82468 21.9047C2.00097 21.7284 2.1 21.4893 2.1 21.24ZM4.48 19.76H4.26C4.0107 19.76 3.7716 19.661 3.59532 19.4847C3.41904 19.3084 3.32 19.0693 3.32 18.82V3.35C3.32264 3.10244 3.42283 2.8659 3.59883 2.69178C3.77483 2.51765 4.01242 2.41999 4.26 2.42H4.48C4.72758 2.41999 4.96517 2.51765 5.14117 2.69178C5.31717 2.8659 5.41737 3.10244 5.42 3.35V18.84C5.42 19.0893 5.32096 19.3284 5.14468 19.5047C4.9684 19.681 4.7293 19.78 4.48 19.78V19.76ZM7.79 17.38H7.56C7.3134 17.38 7.0768 17.282 6.9024 17.1076C6.728 16.9332 6.63 16.6967 6.63 16.45V5.75C6.6287 5.62703 6.6518 5.50502 6.6979 5.39103C6.744 5.27704 6.8123 5.17334 6.8988 5.08592C6.9853 4.9985 7.0883 4.9291 7.2018 4.88174C7.3153 4.83438 7.437 4.80999 7.56 4.81H7.79C8.0376 4.81264 8.2741 4.91283 8.4482 5.08883C8.6224 5.26483 8.72 5.50242 8.72 5.75V16.45C8.72 16.6967 8.622 16.9332 8.4476 17.1076C8.2732 17.282 8.0367 17.38 7.79 17.38ZM11.1 14.93H10.89C10.6424 14.93 10.4048 14.8324 10.2288 14.6582C10.0528 14.4841 9.9526 14.2476 9.95 14V8.24C9.9418 8.1116 9.96 7.9829 10.0036 7.8618C10.0471 7.7408 10.1151 7.6299 10.2032 7.5362C10.2913 7.4424 10.3977 7.3678 10.5159 7.3168C10.634 7.2659 10.7613 7.2397 10.89 7.24H11.11C11.3593 7.24 11.5984 7.339 11.7747 7.5153C11.951 7.6916 12.05 7.9307 12.05 8.18V13.98C12.0513 14.1043 12.028 14.2276 11.9813 14.3428C11.9347 14.458 11.8657 14.5628 11.7782 14.6512C11.6908 14.7395 11.5868 14.8096 11.472 14.8575C11.3573 14.9054 11.2343 14.93 11.11 14.93H11.1ZM14.42 12.78H14.2C13.9507 12.78 13.7116 12.681 13.5353 12.5047C13.359 12.3284 13.26 12.0893 13.26 11.84V10.35C13.2626 10.1024 13.3628 9.8659 13.5388 9.6918C13.7148 9.5176 13.9524 9.42 14.2 9.42H14.42C14.6676 9.42 14.9052 9.5176 15.0812 9.6918C15.2572 9.8659 15.3574 10.1024 15.36 10.35V11.84C15.36 12.0876 15.2624 12.3252 15.0882 12.5012C14.9141 12.6772 14.6776 12.7774 14.43 12.78H14.42Z" fill="#394149"/>
</svg>
